<?xml version="1.0" encoding="utf-8"?>
<!-- Generator: Adobe Illustrator 25.0.1, SVG Export Plug-In . SVG Version: 6.00 Build 0)  -->
<svg version="1.1" id="Слой_1" xmlns="http://www.w3.org/2000/svg" xmlns:xlink="http://www.w3.org/1999/xlink" x="0px" y="0px"
	 viewBox="0 0 48 48" style="enable-background:new 0 0 48 48;" xml:space="preserve">
<style type="text/css">
	.st0{fill:none;stroke:#FFFFFF;stroke-width:1.5;stroke-linecap:round;stroke-linejoin:round;stroke-miterlimit:10;}
</style>
<g id="XWsdpX.tif">
	
		<image style="overflow:visible;" width="254" height="228" id="Layer_0" xlink:href="427AD68DC5ACD831.png"  transform="matrix(0.5 0 0 0.5 211.2712 -66)">
	</image>
</g>
<path class="st0" d="M24,15.9v23.9"/>
<path class="st0" d="M24,15.9c7.9-6.1,16-1.5,16-1.5v24.1c-8-4-16,1.2-16,1.2s-8-5.3-16-1.2V14.4C8,14.4,16.1,9.8,24,15.9z"/>
<path class="st0" d="M40,17.1c0,0,2.1,0.5,2.7,1.5v24.2c0,0-7.6-6.4-18.7,0c-11.1-6.4-18.7,0-18.7,0V18.6c0.6-1,2.7-1.5,2.7-1.5"/>
</svg>
