<?xml version="1.0" encoding="utf-8"?>
<!-- Generator: Adobe Illustrator 25.0.1, SVG Export Plug-In . SVG Version: 6.00 Build 0)  -->
<svg version="1.1" id="Слой_1" xmlns="http://www.w3.org/2000/svg" xmlns:xlink="http://www.w3.org/1999/xlink" x="0px" y="0px"
	 viewBox="0 0 48 48" style="enable-background:new 0 0 48 48;" xml:space="preserve">
<style type="text/css">
	.st0{fill:none;stroke:#FFFFFF;stroke-width:1.5;stroke-miterlimit:10;}
	.st1{fill:none;stroke:#FFFFFF;stroke-miterlimit:10;}
	.st2{fill:#FFFFFF;}
</style>
<path class="st0" d="M4.1,14.3v33h39.7v-33c0-0.4-0.4-0.8-0.8-0.8H5C4.5,13.5,4.1,13.8,4.1,14.3z"/>
<path class="st0" d="M13.8,13.5V8.9c0-1,0.8-1.8,1.8-1.8h20.1c1,0,1.8,0.8,1.8,1.8v4.5"/>
<path class="st0" d="M19.9,13.5V8.7c0-0.9,0.7-1.6,1.6-1.6h9.7c0.9,0,1.6,0.7,1.6,1.6v4.7"/>
<line class="st0" x1="31.3" y1="13.5" x2="31.3" y2="47.2"/>
<path class="st0" d="M7.4,47.2V17.4c0-0.5,0.4-0.9,0.9-0.9h19.1c0.5,0,0.9,0.4,0.9,0.9v29.9"/>
<path class="st1" d="M10.2,21.4v4c0,0.3,0.2,0.5,0.5,0.5h14c0.3,0,0.5-0.2,0.5-0.5v-4c0-0.3-0.2-0.5-0.5-0.5h-14
	C10.4,20.9,10.2,21.2,10.2,21.4z"/>
<path class="st1" d="M10.2,30.6v0.3c0,0.3,0.3,0.6,0.6,0.6h13.9c0.3,0,0.6-0.3,0.6-0.6v-0.6"/>
<path class="st1" d="M10.2,33.6V34c0,0.3,0.3,0.6,0.6,0.6h13.9c0.3,0,0.6-0.3,0.6-0.6v-0.6"/>
<path class="st1" d="M10.2,40.5h1.7c0.3,0,0.6,0.3,0.6,0.6V42"/>
<path class="st1" d="M10.2,42.5v1c0,0.3,0.3,0.6,0.6,0.6h1.7"/>
<circle class="st1" cx="17.8" cy="42.4" r="1.8"/>
<circle class="st1" cx="23.5" cy="42.4" r="1.8"/>
<path class="st2" d="M40.9,39.4h-2.8c-0.3,0-0.5-0.2-0.5-0.5v-0.1c0-0.3,0.2-0.5,0.5-0.5h2.8c0.3,0,0.5,0.2,0.5,0.5v0.1
	C41.4,39.2,41.2,39.4,40.9,39.4z"/>
<path class="st2" d="M40.9,41.7h-2.8c-0.3,0-0.5-0.2-0.5-0.5v-0.1c0-0.3,0.2-0.5,0.5-0.5h2.8c0.3,0,0.5,0.2,0.5,0.5v0.1
	C41.4,41.5,41.2,41.7,40.9,41.7z"/>
<path class="st2" d="M40.9,44h-2.8c-0.3,0-0.5-0.2-0.5-0.5v-0.1c0-0.3,0.2-0.5,0.5-0.5h2.8c0.3,0,0.5,0.2,0.5,0.5v0.1
	C41.4,43.8,41.2,44,40.9,44z"/>
<path class="st2" d="M40.9,28.2h-2.8c-0.3,0-0.5-0.2-0.5-0.5v-0.1c0-0.3,0.2-0.5,0.5-0.5h2.8c0.3,0,0.5,0.2,0.5,0.5v0.1
	C41.4,28,41.2,28.2,40.9,28.2z"/>
<path class="st2" d="M40.9,30.5h-2.8c-0.3,0-0.5-0.2-0.5-0.5v-0.1c0-0.3,0.2-0.5,0.5-0.5h2.8c0.3,0,0.5,0.2,0.5,0.5V30
	C41.4,30.3,41.2,30.5,40.9,30.5z"/>
<path class="st2" d="M40.9,32.8h-2.8c-0.3,0-0.5-0.2-0.5-0.5v-0.1c0-0.3,0.2-0.5,0.5-0.5h2.8c0.3,0,0.5,0.2,0.5,0.5v0.1
	C41.4,32.6,41.2,32.8,40.9,32.8z"/>
<path class="st2" d="M40.9,17.6h-2.8c-0.3,0-0.5-0.2-0.5-0.5V17c0-0.3,0.2-0.5,0.5-0.5h2.8c0.3,0,0.5,0.2,0.5,0.5v0.1
	C41.4,17.4,41.2,17.6,40.9,17.6z"/>
<path class="st2" d="M40.9,19.9h-2.8c-0.3,0-0.5-0.2-0.5-0.5v-0.1c0-0.3,0.2-0.5,0.5-0.5h2.8c0.3,0,0.5,0.2,0.5,0.5v0.1
	C41.4,19.7,41.2,19.9,40.9,19.9z"/>
<path class="st2" d="M40.9,22.2h-2.8c-0.3,0-0.5-0.2-0.5-0.5v-0.1c0-0.3,0.2-0.5,0.5-0.5h2.8c0.3,0,0.5,0.2,0.5,0.5v0.1
	C41.4,22,41.2,22.2,40.9,22.2z"/>
</svg>
