<?xml version="1.0" encoding="utf-8"?>
<!-- Generator: Adobe Illustrator 25.0.1, SVG Export Plug-In . SVG Version: 6.00 Build 0)  -->
<svg version="1.1" id="Слой_1" xmlns="http://www.w3.org/2000/svg" xmlns:xlink="http://www.w3.org/1999/xlink" x="0px" y="0px"
	 viewBox="0 0 48 48" style="enable-background:new 0 0 48 48;" xml:space="preserve">
<style type="text/css">
	.st0{fill:#FFFFFF;stroke:#000000;stroke-width:0.6268;stroke-miterlimit:10;}
</style>
<g>
	<path class="st0" d="M28.9,30.7c0.3,0,0.6-0.1,0.8-0.2c2.2-1.2,7.1-6,13.2-1.4s4,12.2-1.8,14.9c-5.8,2.7-11.5-3.2-12.3-3.4
		s-11.3-0.1-16.6,0.7l3-13.4C15.1,27.8,25.4,31.1,28.9,30.7"/>
	<path class="st0" d="M27.6,19.5c0,0-9,9.2-8.9,11.8s2.2,9.1-4.7,12.4s-12.7-2-12.5-8.3s8-8.8,8.6-9.4c0.6-0.6,5.2-10.1,6.9-15.1
		L27.6,19.5z"/>
	<path class="st0" d="M28.9,30.7c-1.3-3.6-3.3-8.3-4.7-8.9c-2.3-1.1-9-2.4-8.7-10s7.7-10.3,13.2-7.1s4,11.2,4.2,12
		c0.2,0.7,4.7,7,8.4,11.2"/>
	<path class="st0" d="M41.3,27.9c0.6,0.7,1.2,1.4,1.8,2l-12.7,5.3c0,0-0.6-2-1.5-4.4"/>
	<path class="st0" d="M20.5,40.5c4.1-0.2,7.7-0.2,8.2,0c0.8,0.3,6.5,6.1,12.3,3.4c5.8-2.7,7.9-10.3,1.8-14.9s-10.9,0.2-13.2,1.4
		c-0.2,0.1-0.4,0.2-0.8,0.2c-1.4,0.2-4.1-0.3-6.6-0.9"/>
</g>
</svg>
