<?xml version="1.0" encoding="utf-8"?>
<!-- Generator: Adobe Illustrator 25.0.1, SVG Export Plug-In . SVG Version: 6.00 Build 0)  -->
<svg version="1.1" id="Слой_1" xmlns="http://www.w3.org/2000/svg" xmlns:xlink="http://www.w3.org/1999/xlink" x="0px" y="0px"
	 viewBox="0 0 48 48" style="enable-background:new 0 0 48 48;" xml:space="preserve">
<style type="text/css">
	.st0{fill:none;stroke:#FFFFFF;stroke-width:1.3944;stroke-miterlimit:10;}
	.st1{fill:none;stroke:#FFFFFF;stroke-width:1.7151;stroke-linecap:round;stroke-miterlimit:10;}
</style>
<g>
	<circle class="st0" cx="34.1" cy="12.8" r="11.1"/>
	<g>
		<line class="st1" x1="34.1" y1="7.8" x2="34.1" y2="17.8"/>
		<line class="st1" x1="39.1" y1="12.8" x2="29.1" y2="12.8"/>
	</g>
</g>
<path class="st0" d="M14.5,16.4h-1.8c0,0-0.6-0.1-0.6,0.5s0,3.4,0,3.4S12,21,12.6,21c0.5,0,2,0,2,0L14.5,16.4z"/>
<path class="st0" d="M23.5,8.2c0,0-9.1-0.7-9.1,5.6l0.5,12.5c0,0,0.6,5.5,4.8,5.7h3.8h3.8c4.3-0.1,4.8-5.7,4.8-5.7l0.1-2.4"/>
<path class="st0" d="M23.4,15.2h-4.6c0,0-1.9,0-1.8,1.2c0.1,1.2,0.6,5.2,0.6,5.2s0,0.7,0.6,0.9c0.7,0.2,5.3,0.3,5.3,0.3
	s4.6-0.1,5.1-0.3"/>
<path class="st0" d="M15.7,29.3c0,2.8,0,8.2,0,8.2"/>
<path class="st0" d="M9.8,47.2c0,0,0.6-6.2,0.7-7.9c0.2-1.7,2.4-1.9,2.4-1.9s-0.2-9.7-0.2-10.1c0-0.5,1.7-0.6,1.7-0.6"/>
<line class="st0" x1="12.9" y1="37.5" x2="23.5" y2="37.5"/>
<path class="st0" d="M12.1,28c-3.3,1-6.1,2.7-6.7,5.4L4.7,46.3v0.9h18.8h18.8v-0.9l-0.7-12.8c-0.6-2.9-3.8-4.6-7.3-5.6"/>
<path class="st0" d="M31.3,29.1c0,2.9,0,8.4,0,8.4"/>
<path class="st0" d="M37.1,47.2c0,0-0.6-6.2-0.7-7.9c-0.2-1.7-2.4-1.9-2.4-1.9s0.2-9.7,0.2-10.1c0-0.5-1.8-0.6-1.8-0.6"/>
<line class="st0" x1="34.1" y1="37.5" x2="23.5" y2="37.5"/>
</svg>
