<?xml version="1.0" encoding="utf-8"?>
<!-- Generator: Adobe Illustrator 25.0.1, SVG Export Plug-In . SVG Version: 6.00 Build 0)  -->
<svg version="1.1" id="Слой_1" xmlns="http://www.w3.org/2000/svg" xmlns:xlink="http://www.w3.org/1999/xlink" x="0px" y="0px"
	 viewBox="0 0 48 48" style="enable-background:new 0 0 48 48;" xml:space="preserve">
<style type="text/css">
	.st0{fill:none;stroke:#FFFFFF;stroke-width:1.5;stroke-miterlimit:10;}
</style>
<path class="st0" d="M14.3,14.1h-1.9c0,0-0.6-0.1-0.6,0.5s0,3.7,0,3.7S11.7,19,12.3,19c0.5,0,2.2,0,2.2,0L14.3,14.1z"/>
<path class="st0" d="M24,30.8h4.1c4.6-0.1,5.2-6.1,5.2-6.1l0.5-13.4c0-6.7-9.8-6-9.8-6s-9.8-0.7-9.8,6l0.5,13.4c0,0,0.6,5.9,5.2,6.1
	C19.9,30.8,24,30.8,24,30.8z"/>
<path class="st0" d="M24,21c0,0,4.9-0.1,5.5-0.3c0.6-0.2,0.6-1,0.6-1s0.5-4.3,0.6-5.6c0.1-1.3-1.9-1.3-1.9-1.3s-4.9,0-4.9,0h-4.9
	c0,0-2,0-1.9,1.3c0.1,1.3,0.6,5.6,0.6,5.6s0,0.8,0.6,1C19.1,20.9,24,21,24,21z"/>
<path class="st0" d="M33.7,14.1h1.9c0,0,0.6-0.1,0.6,0.5s0,3.7,0,3.7s0.1,0.6-0.5,0.7c-0.5,0-2.2,0-2.2,0L33.7,14.1z"/>
<path class="st0" d="M15.6,28c0,3,0,8.8,0,8.8"/>
<path class="st0" d="M9.3,47.2c0,0,0.6-6.7,0.8-8.5c0.2-1.8,2.6-2,2.6-2s-0.2-10.4-0.2-10.9c0-0.5,1.8-0.6,1.8-0.6"/>
<line class="st0" x1="12.6" y1="36.8" x2="24" y2="36.8"/>
<path class="st0" d="M11.8,26.6c-3.5,1.1-6.6,2.9-7.2,5.8L3.8,46.3v1c0,0,20.2,0,20.2,0h20.2v-1l-0.8-13.8c-0.6-3.1-4.1-5-7.9-6"/>
<path class="st0" d="M32.4,27.8c0,3.1,0,9,0,9"/>
<path class="st0" d="M38.7,47.2c0,0-0.6-6.7-0.8-8.5c-0.2-1.8-2.6-2-2.6-2s0.2-10.4,0.2-10.9c0-0.5-1.9-0.6-1.9-0.6"/>
<line class="st0" x1="35.4" y1="36.8" x2="24" y2="36.8"/>
</svg>
